<svg width="45" height="25" viewBox="0 0 45 25" fill="none" xmlns="http://www.w3.org/2000/svg">
<path d="M7.296 24.51C3.284 24.51 0.36 20.974 0.36 15.534C0.36 10.094 3.284 6.558 7.296 6.558C10.764 6.558 12.158 8.802 12.872 10.604H14.844C13.926 9.278 13.008 7.612 13.008 3.77V0.199998H17.156V24H13.416C13.416 22.844 14.232 21.416 14.878 20.464H12.94C12.192 22.096 10.9 24.51 7.296 24.51ZM8.894 21.246C11.41 21.246 13.212 19.342 13.212 15.5C13.212 11.692 11.444 9.822 8.894 9.822C6.514 9.822 4.678 11.284 4.678 15.5C4.678 19.75 6.514 21.246 8.894 21.246ZM25.3295 24H21.2155V0.199998H25.3295V24ZM36.8396 24.51C31.7396 24.51 28.1356 20.974 28.1356 15.5C28.1356 10.128 31.9096 6.558 36.8736 6.558C40.8516 6.558 43.5376 8.802 44.5236 11.59L40.6816 12.984C40.0696 11.148 38.7436 9.924 36.7376 9.924C34.3236 9.924 32.3516 11.76 32.3516 15.5C32.3516 19.308 34.3576 21.144 36.7716 21.144C39.0496 21.144 40.2736 19.784 40.9536 17.744L44.8636 19.104C43.6396 22.334 40.7836 24.51 36.8396 24.51Z" fill="black"/>
</svg>
